<?xml version="1.0" encoding="utf-8"?>
<!-- Generator: Adobe Illustrator 24.1.1, SVG Export Plug-In . SVG Version: 6.00 Build 0)  -->
<svg version="1.1" id="Layer_1" xmlns="http://www.w3.org/2000/svg" xmlns:xlink="http://www.w3.org/1999/xlink" x="0px" y="0px"
	 viewBox="0 0 876.32 272.62" style="enable-background:new 0 0 876.32 272.62;" xml:space="preserve">
<style type="text/css">
	.st0{fill:#FFFFFF;}
	.st1{fill:#F7941D;}
</style>
<g>
	<g>
		<path class="st0" d="M232.22,203.52l-44.08-37.38c5.6-9.68,8.54-20.59,8.54-32c0-11.73-3.25-23.24-9.26-33.19l37.22-31.56
			c0,0,0,0,0,0l6.79-5.76l-5.69-6.85c-0.02-0.02-0.03-0.04-0.05-0.06c0,0-0.01-0.01-0.01-0.01c0,0-0.01-0.01-0.01-0.01
			C202.56,28.93,168.61,13,132.51,13h-9v74.98h9c0.86,0,1.71,0.02,2.56,0.07c0.05,0,0.09,0.01,0.14,0.01
			c0.81,0.05,1.62,0.11,2.43,0.2l0.09,0.01c0.01,0,0.01,0,0.02,0c0.83,0.09,1.65,0.21,2.47,0.35c0.02,0,0.05,0.01,0.07,0.01
			c0.8,0.14,1.6,0.29,2.39,0.47c0.05,0.01,0.1,0.02,0.15,0.03c0.78,0.18,1.55,0.38,2.32,0.59l0.16,0.05
			c0.71,0.2,1.42,0.43,2.12,0.67c0.06,0.02,0.12,0.04,0.18,0.06l0.29,0.1c0.59,0.21,1.18,0.43,1.77,0.67
			c0.39,0.16,0.77,0.32,1.15,0.49c0.35,0.15,0.7,0.3,1.05,0.47c0.4,0.19,0.79,0.38,1.18,0.57c0.41,0.2,0.82,0.41,1.22,0.63
			c0.04,0.02,0.08,0.04,0.12,0.06c0.09,0.05,0.19,0.1,0.29,0.15c0.04,0.02,0.09,0.05,0.13,0.07c0.59,0.33,1.18,0.67,1.75,1.02
			l0.08,0.05c0.11,0.06,0.21,0.13,0.31,0.19c0.51,0.32,1.01,0.65,1.5,0.99c0.28,0.19,0.57,0.39,0.86,0.6
			c0.48,0.34,0.96,0.69,1.42,1.06l0.15,0.12c0.12,0.09,0.24,0.19,0.36,0.29c0.49,0.39,0.98,0.8,1.45,1.21
			c0.13,0.11,0.26,0.22,0.38,0.34l0.08,0.07c0.49,0.44,0.98,0.89,1.45,1.35c0.1,0.1,0.21,0.2,0.31,0.3l0.01,0.01
			c0.51,0.51,1.01,1.03,1.51,1.57c0.12,0.13,0.24,0.27,0.36,0.4c0.52,0.58,1.04,1.17,1.53,1.79l0.01,0.01
			c6.74,8.3,10.31,18.36,10.31,29.07c0,10.28-3.3,20-9.55,28.11l-0.09,0.12c-0.22,0.28-0.43,0.55-0.65,0.82
			c-0.02,0.02-0.04,0.05-0.06,0.08l-0.09,0.11c-0.13,0.17-0.28,0.34-0.43,0.51c-0.12,0.14-0.24,0.28-0.36,0.42
			c-0.24,0.28-0.5,0.57-0.77,0.87c-0.25,0.27-0.5,0.54-0.8,0.86c-0.14,0.15-0.28,0.3-0.43,0.45l-0.19,0.19
			c-0.19,0.2-0.39,0.4-0.6,0.59l-0.2,0.19c-0.08,0.08-0.17,0.17-0.26,0.25l-0.57,0.53c-1.11,1.03-2.29,2.01-3.54,2.94
			c-0.16,0.12-0.33,0.25-0.5,0.36l-0.61,0.43c-0.16,0.11-0.31,0.22-0.47,0.32l-0.23,0.16c-0.16,0.11-0.33,0.22-0.5,0.33l-0.22,0.14
			c-0.16,0.11-0.33,0.22-0.5,0.32l-0.37,0.23c-0.05,0.03-0.11,0.06-0.16,0.1l-0.15,0.09c-0.9,0.55-1.87,1.09-2.93,1.64
			c-0.27,0.14-0.55,0.28-0.82,0.41l-0.31,0.15c-0.28,0.14-0.57,0.27-0.86,0.4l-0.18,0.08c-0.27,0.12-0.54,0.24-0.81,0.35l-0.32,0.13
			c-0.12,0.05-0.24,0.1-0.36,0.15l-0.35,0l-1.42,0.67c-0.24,0.09-0.5,0.17-0.76,0.26c-0.75,0.26-1.49,0.48-2.2,0.68l-0.15,0.04
			c-0.3,0.09-0.6,0.17-0.92,0.25l-0.17,0.05c-0.24,0.06-0.49,0.12-0.74,0.18l-0.07,0.02c-0.43,0.1-0.87,0.19-1.31,0.28l-0.09,0.02
			c-0.31,0.06-0.62,0.12-0.92,0.18l-0.27,0.05c-0.15,0.03-0.31,0.05-0.52,0.09l-0.68,0.1c-0.28,0.04-0.56,0.08-0.87,0.12
			c-0.25,0.03-0.51,0.06-0.76,0.09c-0.27,0.03-0.54,0.06-0.81,0.08c-0.19,0.02-0.37,0.03-0.56,0.05c-0.15,0.01-0.3,0.02-0.45,0.03
			c-0.26,0.02-0.52,0.04-0.79,0.05c-0.83,0.04-1.66,0.07-2.49,0.07c-25.46,0-46.17-20.71-46.17-46.17V36.49V21.05l-13.29,7.52
			c0,0-0.01,0-0.01,0.01l-0.14,0.08C34.95,50.15,11.37,90.57,11.37,134.15c0,66.8,54.35,121.15,121.15,121.15
			c36.65,0,70.91-16.32,94.03-44.77c0,0,0.01-0.01,0.01-0.01c0,0,0.01-0.01,0.01-0.02c0.04-0.05,0.08-0.09,0.12-0.14L232.22,203.52z
			 M141.51,31.39c24.41,2.12,47.17,12.82,64.39,30.28L176.05,87c-0.08-0.07-0.16-0.14-0.24-0.22c-0.22-0.2-0.46-0.41-0.71-0.64
			c-0.03-0.03-0.06-0.05-0.09-0.08c-0.3-0.27-0.61-0.54-0.92-0.81L173.83,85l-0.37-0.26c-0.09-0.07-0.18-0.14-0.27-0.22
			c-4.35-3.58-9.13-6.55-14.22-8.85c-0.03-0.01-0.06-0.03-0.09-0.04c-1.33-0.6-2.69-1.16-4.06-1.67c-0.2-0.08-0.4-0.15-0.6-0.22
			c-0.64-0.23-1.29-0.45-1.93-0.66c-0.06-0.02-0.13-0.04-0.19-0.06c-0.04-0.01-0.07-0.02-0.11-0.03c-0.52-0.16-1.04-0.33-1.56-0.48
			c-0.06-0.02-0.11-0.03-0.17-0.05c-0.17-0.05-0.34-0.1-0.52-0.15c-0.19-0.05-0.38-0.1-0.57-0.16c-0.2-0.05-0.4-0.11-0.61-0.16
			l-0.17-0.04c-0.43-0.11-0.85-0.21-1.28-0.31c-0.11-0.03-0.21-0.05-0.32-0.07c-0.29-0.07-0.59-0.13-0.88-0.19
			c-0.2-0.05-0.4-0.09-0.6-0.13c-0.4-0.08-0.8-0.16-1.17-0.23c-0.16-0.03-0.33-0.06-0.5-0.09c-0.29-0.05-0.58-0.1-0.87-0.15
			c-0.24-0.04-0.48-0.08-0.73-0.12c-0.12-0.02-0.24-0.03-0.36-0.05c-0.06-0.01-0.11-0.02-0.17-0.03V31.39z M132.51,237.29
			c-56.87,0-103.15-46.27-103.15-103.15c0-31.65,14.61-61.35,38.98-80.75v80.75c0,35.38,28.79,64.17,64.17,64.17
			c0.54,0,1.08-0.01,1.62-0.02l0.09,0c0.22-0.01,0.43-0.02,0.64-0.03c0.31-0.01,0.62-0.02,0.92-0.04c0.01,0,0.01,0,0.02,0
			c0.03,0,0.06,0,0.1-0.01c1.05-0.05,2.1-0.13,3.15-0.24l0.25-0.02c0.1-0.01,0.19-0.02,0.29-0.03c0.6-0.06,1.19-0.14,1.78-0.22
			l1.48,0l0.64-0.32c3.28-0.56,6.49-1.37,9.6-2.42l0.43,0l1.22-0.58c8.29-3.04,15.89-7.8,22.33-14.04l29.82,25.28
			C187.47,225.86,160.83,237.29,132.51,237.29z"/>
	</g>
	<polygon class="st1" points="118.4,156.03 118.36,107.19 160.68,131.57 	"/>
	<g>
		<path class="st0" d="M267.22,234.65c-2.49,0-4.5-2.01-4.5-4.5V36.39c0-2.49,2.01-4.5,4.5-4.5s4.5,2.01,4.5,4.5v193.76
			C271.72,232.63,269.71,234.65,267.22,234.65z"/>
	</g>
	<g>
		<path class="st0" d="M297.73,134.86c0-23.88,18.34-40.97,43.01-40.97c13.7,0,25.13,4.98,32.6,14.04l-11.77,10.87
			c-5.32-6.11-12-9.28-19.92-9.28c-14.83,0-25.35,10.41-25.35,25.35c0,14.94,10.53,25.35,25.35,25.35c7.92,0,14.6-3.17,19.92-9.39
			l11.77,10.87c-7.47,9.17-18.9,14.15-32.71,14.15C316.07,175.83,297.73,158.74,297.73,134.86z"/>
		<path class="st0" d="M390.21,95.24h18.34v79.23h-18.34V95.24z"/>
		<path class="st0" d="M504.53,95.24v79.23h-15.05l-39.5-48.11v48.11h-18.11V95.24h15.17l39.39,48.11V95.24H504.53z"/>
		<path class="st0" d="M589.19,159.76v14.71h-61.35V95.24h59.88v14.71h-41.65v17.21h36.79v14.26h-36.79v18.34H589.19z"/>
		<path class="st1" d="M680.98,152.86c0,13.7-10.87,21.62-31.69,21.62h-40.97V95.24h38.71c19.81,0,30,8.26,30,20.6
			c0,7.92-4.07,14.04-10.53,17.43C675.32,136.1,680.98,142.9,680.98,152.86z M626.54,109.05v18.68h18.22
			c8.94,0,13.81-3.17,13.81-9.4c0-6.22-4.87-9.28-13.81-9.28H626.54z M662.53,150.93c0-6.68-5.09-9.85-14.6-9.85h-21.39v19.58h21.39
			C657.44,160.67,662.53,157.72,662.53,150.93z"/>
		<path class="st1" d="M751.61,157.5h-36.79l-7.02,16.98h-18.79l35.32-79.23h18.11l35.43,79.23h-19.24L751.61,157.5z M745.84,143.58
			l-12.56-30.33l-12.56,30.33H745.84z"/>
		<path class="st1" d="M854.83,159.53v14.94h-69.27v-11.88l43.46-52.41h-42.56V95.24h66.67v11.88l-43.35,52.41H854.83z"/>
	</g>
</g>
</svg>
